<svg width="128" height="128" viewBox="0 0 128 128" fill="none" xmlns="http://www.w3.org/2000/svg" aria-label="WryLyt Logo">
<defs>
<linearGradient id="grad" x1="0%" y1="0%" x2="100%" y2="100%">
<stop offset="0%" style="stop-color:hsl(var(--accent));stop-opacity:1" />
<stop offset="100%" style="stop-color:hsl(var(--primary));stop-opacity:1" />
</linearGradient>
</defs>
<path fill-rule="evenodd" clip-rule="evenodd" d="M64 128C99.3462 128 128 99.3462 128 64C128 28.6538 99.3462 0 64 0C28.6538 0 0 28.6538 0 64C0 99.3462 28.6538 128 64 128ZM44.4843 33.7196L64 74.524L83.5157 33.7196C85.5036 30.3444 90.4964 30.3444 92.4843 33.7196L103.516 52.2804C105.504 55.6556 102.996 60 99.0312 60H80.5C79.3954 60 78.5 59.1046 78.5 58V45.5C78.5 44.3954 77.6046 43.5 76.5 43.5H68V87C68 88.1046 67.1046 89 66 89H62C60.8954 89 60 88.1046 60 87V43.5H51.5C50.3954 43.5 49.5 44.3954 49.5 45.5V58C49.5 59.1046 48.6046 60 47.5 60H28.9688C25.0044 60 22.4964 55.6556 24.4843 52.2804L35.5157 33.7196C37.5036 30.3444 42.4964 30.3444 44.4843 33.7196Z" fill="url(#grad)"/>
</svg>
